<svg xmlns="http://www.w3.org/2000/svg" width="120" height="120" viewBox="0 0 120 120">
  <!-- Background Circle -->
  <circle cx="60" cy="60" r="60" fill="#1a237e"/>
  
  <!-- Sales Chart Icon -->
  <rect x="30" y="70" width="10" height="20" fill="#ffffff" rx="1" ry="1"/>
  <rect x="45" y="60" width="10" height="30" fill="#ffffff" rx="1" ry="1"/>
  <rect x="60" y="45" width="10" height="45" fill="#ffffff" rx="1" ry="1"/>
  <rect x="75" y="30" width="10" height="60" fill="#00bcd4" rx="1" ry="1"/>
  
  <!-- Circular progress indicator -->
  <path d="M60,25 A35,35 0 0,1 95,60" stroke="#00bcd4" stroke-width="5" fill="none"/>
  
  <!-- Headset icon -->
  <path d="M40,50 C40,40 48,32 60,32 C72,32 80,40 80,50 L80,65 C80,68 78,70 75,70 L70,70 L70,55 L75,55 C75,55 75,50 75,50 C75,42.5 68.5,37 60,37 C51.5,37 45,42.5 45,50 C45,50 45,55 45,55 L50,55 L50,70 L45,70 C42,70 40,68 40,65 Z" fill="#00bcd4"/>
</svg> 